<svg id="aa85e753-2381-44d2-bf2d-c9d9bb5d585f" data-name="Layer 1" xmlns="http://www.w3.org/2000/svg" width="865.76" height="682.89" viewBox="0 0 865.76 682.89"><g id="e71ca159-9c38-42e9-95cb-76ff307eb2ac" data-name="freepik--background-complete--inject-2"><rect x="723" y="595.97" width="56.82" height="0.43" fill="#ebebeb"/><rect x="561.31" y="600.64" width="14.91" height="0.43" fill="#ebebeb"/><rect x="688.36" y="580.05" width="32.92" height="0.43" fill="#ebebeb"/><rect x="98.01" y="582.93" width="74.09" height="0.43" fill="#ebebeb"/><rect x="187.39" y="582.93" width="10.86" height="0.43" fill="#ebebeb"/><rect x="233.55" y="590.17" width="160.71" height="0.43" fill="#ebebeb"/><path d="M417,491.86H85.73a9.8,9.8,0,0,1-9.8-9.8V16.43a9.8,9.8,0,0,1,9.8-9.71H417a9.79,9.79,0,0,1,9.8,9.79h0V482.06A9.8,9.8,0,0,1,417,491.86ZM85.73,7.06a9.39,9.39,0,0,0-9.37,9.37V482.06a9.39,9.39,0,0,0,9.37,9.37H417a9.39,9.39,0,0,0,9.37-9.37V16.43A9.39,9.39,0,0,0,417,7.06Z" fill="#ebebeb"/><path d="M788.05,491.86H456.79a9.8,9.8,0,0,1-9.8-9.8V16.43a9.8,9.8,0,0,1,9.8-9.71H788.05a9.79,9.79,0,0,1,9.8,9.79V482.06A9.8,9.8,0,0,1,788.05,491.86ZM456.79,7.06a9.39,9.39,0,0,0-9.37,9.37V482.06a9.39,9.39,0,0,0,9.37,9.37H788.05a9.39,9.39,0,0,0,9.37-9.37V16.43a9.39,9.39,0,0,0-9.37-9.37Z" fill="#ebebeb"/><rect x="8.01" y="568.37" width="857.75" height="0.43" fill="#ebebeb"/><path d="M352,365.84H145.07V206.3l2.11-2a145.51,145.51,0,0,1,101.33-40.71h0a145.56,145.56,0,0,1,101.35,40.71l2.1,2ZM158.79,352.11H338.23v-140a132.74,132.74,0,0,0-179.44,0Z" fill="#e6e6e6"/><polygon points="340.84 272.94 340.84 262.65 253.66 262.65 253.66 175.47 243.36 175.47 243.36 262.65 156.2 262.65 156.2 272.94 243.36 272.94 243.36 353.83 253.66 353.83 253.66 272.94 340.84 272.94" fill="#f5f5f5"/><path d="M358.82,372.7H138.2V203.47l2-2a153.3,153.3,0,0,1,216.58,0l2,2ZM151.93,359H345.09V209.14a139.59,139.59,0,0,0-193.16,0Z" fill="#f5f5f5"/><rect x="680.01" y="173.19" width="89.41" height="395.41" fill="#e6e6e6"/><rect x="487.99" y="173.2" width="218.4" height="395.41" fill="#f5f5f5"/><rect x="500" y="185.57" width="72.75" height="370.67" fill="#ebebeb"/><rect x="585.19" y="185.57" width="106.7" height="370.67" fill="#ebebeb"/><rect x="506.61" y="305.01" width="66.15" height="19.32" fill="#f5f5f5"/><rect x="598.08" y="305.01" width="93.82" height="19.32" fill="#f5f5f5"/><rect x="506.61" y="420.36" width="66.15" height="19.32" fill="#f5f5f5"/><rect x="598.08" y="420.36" width="93.82" height="19.32" fill="#f5f5f5"/><rect x="621.39" y="450.46" width="10.21" height="105.78" fill="#e0e0e0"/><rect x="631.6" y="459.61" width="10.21" height="96.63" fill="#e0e0e0"/><rect x="611.2" y="459.61" width="10.21" height="96.63" fill="#fafafa"/><rect x="672.6" y="459.61" width="7.93" height="96.63" fill="#e0e0e0"/><rect x="680.52" y="452.14" width="11.39" height="104.1" fill="#f0f0f0"/><rect x="641.81" y="459.61" width="15.39" height="96.63" fill="#f5f5f5"/><rect x="657.19" y="453.55" width="15.39" height="102.69" fill="#e6e6e6"/><rect x="682.24" y="332.73" width="10.21" height="88.25" fill="#e0e0e0"/><rect x="672.03" y="340.36" width="10.21" height="80.61" fill="#e6e6e6"/><rect x="633.33" y="340.36" width="7.93" height="80.61" fill="#e0e0e0"/><rect x="621.94" y="334.14" width="11.39" height="86.84" fill="#f0f0f0"/><rect x="610.6" y="334.14" width="11.39" height="86.84" fill="#f5f5f5"/><rect x="656.66" y="340.36" width="15.39" height="80.61" fill="#f5f5f5"/><rect x="641.26" y="335.3" width="15.39" height="85.67" fill="#e6e6e6"/><rect x="621.39" y="232.2" width="10.21" height="72.81" fill="#fafafa"/><rect x="631.6" y="224.39" width="10.21" height="80.61" fill="#e0e0e0"/><rect x="611.2" y="224.39" width="10.21" height="80.61" fill="#e0e0e0"/><rect x="672.6" y="224.39" width="7.93" height="80.61" fill="#e0e0e0"/><rect x="680.52" y="238.91" width="11.39" height="66.12" fill="#e0e0e0"/><rect x="641.81" y="224.39" width="15.39" height="80.61" fill="#f5f5f5"/><rect x="657.19" y="219.35" width="15.39" height="85.67" fill="#e6e6e6"/><polygon points="570.9 307.7 540.68 244.36 510.43 307.7 570.9 307.7" fill="#e0e0e0"/><polygon points="510.43 307.7 540.68 244.36 540.68 307.7 510.43 307.7" fill="#f5f5f5"/><circle cx="538.77" cy="384.61" r="17.17" fill="#fafafa"/><path d="M521.69,383.13v1.3c-3.43.52-5.63,1.19-5.63,1.93,0,1.57,9.8,2.84,21.87,2.84s21.89-1.27,21.89-2.84c0-.61-1.4-1.15-3.81-1.62V383.3c7,.7,11.5,1.8,11.5,3.06,0,2.12-13.21,3.86-29.53,3.86s-29.52-1.72-29.52-3.86C508.34,385,513.66,383.82,521.69,383.13Z" fill="#e0e0e0"/><path d="M542.5,354.52a9.62,9.62,0,1,0,4-13h0A9.63,9.63,0,0,0,542.5,354.52Z" fill="#fafafa"/><path d="M542.15,353.76a5.79,5.79,0,0,0,.31.67c-1.59,1.18-2.47,2.08-2.28,2.44.41.77,5.59-1.17,11.58-4.36s10.46-6.42,10-7.21c-.15-.29-1-.19-2.31.23v-.09l-.38-.62c3.64-1.49,6.16-2.14,6.48-1.52.57,1-5.5,5.38-13.57,9.69s-15,6.86-15.61,5.88C536.05,358.22,538.36,356.23,542.15,353.76Z" fill="#e0e0e0"/><path d="M515.91,339.09l-.91,1.84a2.15,2.15,0,0,1-1.6,1.17l-2,.29a2.15,2.15,0,0,0-1.79,2.45,2.08,2.08,0,0,0,.61,1.18l1.47,1.44a2.12,2.12,0,0,1,.62,1.89l-.34,2a2.11,2.11,0,0,0,3.08,2.24l1.82-1a2.18,2.18,0,0,1,2,0l1.82,1a2.13,2.13,0,0,0,3.09-2.24l-.35-2a2.12,2.12,0,0,1,.62-1.89l1.46-1.44a2.11,2.11,0,0,0,0-3,2,2,0,0,0-1.23-.63l-2-.29a2.13,2.13,0,0,1-1.61-1.17l-.91-1.84a2.12,2.12,0,0,0-3.82,0Z" fill="#fafafa"/><path d="M559.7,364.21l-.43.87a1,1,0,0,1-.77.55l-1,.14a1,1,0,0,0-.85,1.15,1,1,0,0,0,.28.56l.71.67a1.06,1.06,0,0,1,.29.91l-.17.95a1,1,0,0,0,.86,1.17,1,1,0,0,0,.61-.09l.86-.47a1,1,0,0,1,.94,0l.86.47a1,1,0,0,0,1.38-.47,1,1,0,0,0,.1-.61l-.16-.95a1,1,0,0,1,.28-.91l.7-.67a1,1,0,0,0,0-1.43,1,1,0,0,0-.57-.28l-1-.14a1,1,0,0,1-.75-.55l-.43-.87a1,1,0,0,0-1.82,0Z" fill="#fafafa"/><rect x="525.29" y="477.31" width="40.13" height="8.75" fill="#e6e6e6"/><rect x="505.96" y="477.31" width="20.05" height="8.75" fill="#fafafa"/><rect x="527.31" y="486.06" width="33.49" height="70.18" fill="#e0e0e0"/><rect x="510.57" y="486.06" width="16.04" height="70.18" fill="#f5f5f5"/><path d="M622.73,84.27A649.5,649.5,0,0,1,436.89,56.93C330.15,88.8,237.75,87.09,179,80c-57.47-6.87-94.84-20.13-101.9-22.77a1.27,1.27,0,0,1-.78-1.62.36.36,0,0,1,0-.09h0A1.26,1.26,0,0,1,78,54.82c6.86,2.59,44.09,15.78,101.4,22.64,58.53,7,150.62,8.7,257-23.12h.92c106.36,31.84,198.57,30.14,257.1,23.12,57.3-6.86,94.36-20,101.32-22.64a1.26,1.26,0,0,1,1.63.74h0a1.26,1.26,0,0,1-.64,1.67l-.1,0C789.6,59.91,752.23,73.14,694.76,80A604.15,604.15,0,0,1,622.73,84.27Z" fill="#e0e0e0"/><path d="M121.8,69.33l7.45,49.46,33.31-42.25S144.11,84.48,121.8,69.33Z" fill="#f0f0f0"/><path d="M558.28,81.49l16.21,46.6,21.17-43.22S580.12,95.25,558.28,81.49Z" fill="#f0f0f0"/><path d="M342.3,77.65s20.75,9.81,44.72-9.07l6.78,56.35-24.19-9-19.13,11.49Z" fill="#f5f5f5"/><path d="M342.3,77.65l8.18,49.75,19.13-11.49-4.5-36.7A38.65,38.65,0,0,1,342.3,77.65Z" fill="#ebebeb"/><path d="M496.38,71.3l5.36,10.9A3.29,3.29,0,0,0,504.26,84l12,1.72a3.44,3.44,0,0,1,1.87,5.73l-8.67,8.44a3.44,3.44,0,0,0-1,3l2,11.9a3.43,3.43,0,0,1-4.87,3.54L495,112.7a3.3,3.3,0,0,0-3.11,0l-10.76,5.52a3.44,3.44,0,0,1-4.87-3.53l2-11.91a3.39,3.39,0,0,0-1-3l-8.66-8.44a3.42,3.42,0,0,1,1.87-5.73l12-1.72A3.33,3.33,0,0,0,485,82.2l5.35-10.84A3.44,3.44,0,0,1,495,70,3.49,3.49,0,0,1,496.38,71.3Z" fill="#f5f5f5"/><polygon points="664.9 82.85 654.76 112.99 680.52 138.24 691.9 103.69 664.9 82.85" fill="#f5f5f5"/><circle cx="246.03" cy="105.62" r="22.56" transform="translate(-15.32 163.8) rotate(-35.78)" fill="#f0f0f0"/><path d="M223.58,103.69v1.72c-4.59.67-7.41,1.54-7.41,2.52,0,2.08,12.89,3.76,28.76,3.76s28.76-1.72,28.76-3.76c0-.79-1.85-1.53-5-2.13v-1.9c9.18.92,15.12,2.37,15.12,4,0,2.8-17.38,5.15-38.81,5.15s-38.78-2.27-38.78-5.15C206.05,106.21,213,104.58,223.58,103.69Z" fill="#e0e0e0"/><path d="M731.82,91.62A18.66,18.66,0,1,0,745.28,68.9a18.67,18.67,0,0,0-13.46,22.72Z" fill="#f0f0f0"/><path d="M731.49,90a5.82,5.82,0,0,0,.29,1.4c-3.55,1.48-5.62,2.75-5.43,3.43.42,1.72,11.09.4,23.84-2.86s22.71-7.24,22.3-8.9c-.15-.62-1.71-.83-4.44-.67v-.16c-.12-.46-.26-.91-.41-1.35,7.55-1.13,12.61-1.19,12.93.12.59,2.25-12.88,7.63-30.07,12s-31.62,6.29-32.27,4C717.94,95.6,723.22,92.92,731.49,90Z" fill="#e0e0e0"/></g><path d="M193.21,477.48s-100,25-89.1,90.66c0,0,10.16,25,55.49,36.74,0,0,104.74,44.55,137.57,46.89s109.42,32.05,191.49-15.63c0,0,62.53-37.52,145.37-32,0,0,167.75,29.07,139.42-55.14,0,0-2.19-11.57-49.61-20.31" fill="#d1d3d4"/><ellipse cx="443.61" cy="510.97" rx="251.42" ry="80.97" fill="#bcbec0"/><ellipse cx="440.65" cy="507.27" rx="195.22" ry="61.74" opacity="0.3"/><ellipse cx="223.86" cy="533" rx="80.36" ry="39.5" opacity="0.3"/><ellipse cx="349.06" cy="454.76" rx="58.43" ry="18.98" opacity="0.3"/><ellipse cx="683.66" cy="574.51" rx="58.43" ry="18.98" opacity="0.3"/><path d="M318.4,421.37s-23.22,1.54-14.8,19.91c0,0,6.64,16.33,42.36,18.63,0,0,28.07.51,34.45-1.53a15.93,15.93,0,0,0-.51-15.06s12.7-11.95,25.06-4.13a4.6,4.6,0,0,1,.9.75c1,1.05,3.22,3.78,2.62,6.19,0,0,22-12.39,15.12-27.32,0,0-3.55-6.54-13.16-6.75a22.14,22.14,0,0,0-8.64,1.69l-17.05,6.86Z" fill="#2f2e41"/><path d="M386.29,376.2l-1.46,42.17-.08,2.23-11.23,9.19c-10.85,9.94-24.34,6.62-31,4a7.25,7.25,0,0,1-4.59-6.94s0,0,0-.07c.21-8,3-20.19,3-20.19-21.69,3.57-22.45,14.79-22.45,14.79l-3.58-38.53c.24-10.39,4.57-16.49,9.11-20a24.3,24.3,0,0,1,10.54-4.71l19.15.25h13.26C386,359.11,386.29,376.2,386.29,376.2Z" fill="#0071f2"/><path d="M365.81,370.77a.53.53,0,0,1-.54.57L349,370.85l-8.59,8.59a2.09,2.09,0,0,1-3.07-.15L323.94,362.8a24.3,24.3,0,0,1,10.54-4.71l19.15.25H364.8Z" opacity="0.3"/><polygon points="220.86 410.24 221.51 420.39 213.68 420.49 212.65 408.6 220.86 410.24" fill="#f7a48b"/><path d="M487.31,460.45s-11,10.43-7.24,24.36a3.59,3.59,0,0,0,3.84,2.69c1.58-.2,3.78-1.08,6.68-3.5a62.41,62.41,0,0,1,12.47-8.28L518.63,468s-17.61,7.22-18.12-5.33Z" fill="#0071f2"/><path d="M500.51,462.71l24.33,2.8L518.63,468l-6.08,3S500.57,471.79,500.51,462.71Z" fill="#f9b499"/><path d="M634,411.2s46.53,4.11,58.9,16c0,0,19.79,29.68-28.69,29.68,0,0-20.78-1.48-52.93,6.93L543.05,446l3.46-22.75S621.14,405.11,634,411.2Z" fill="#2f2e41"/><path d="M634,411.2s46.53,4.11,58.9,16c0,0,19.79,29.68-28.69,29.68,0,0-20.78-1.48-52.93,6.93L543.05,446l3.46-22.75S621.14,405.11,634,411.2Z" opacity="0.3"/><path d="M602.14,443.09a29.9,29.9,0,0,0-7.84-5.79c-6.16-3.11-16.29-5.93-24,3.24-11.94,14.13,19.31,32.31,19.31,32.31s20,9.86,26.46,15.69a16.57,16.57,0,0,0,3.92,2.67c3.3,1.56,8.19,2.52,9.21-4.82a15.67,15.67,0,0,0-.81-7.43C626.33,473.35,620.27,461.5,602.14,443.09Z" fill="#0071f2"/><path d="M524.74,217.72s1,35.74,10.77,46.36l39.18-13.63,2.3-7.75-12.35-26.12Z" fill="#2f2e41"/><path d="M524.74,217.72s1.36,36.9,11.12,47.52l38.83-14.79,2.3-7.75-12.35-26.12Z" opacity="0.3"/><path d="M638.55,324.85a68,68,0,0,0-33.19,12s-.08,12.87,1.31,27.1c1.49,15.1,4.63,31.7,11.31,36l19,11.63s-44.36,4-82.54,17.22c0,0-32.83,9.19-61.54-9.95,0,0-21.94-15.39-32.5-22.86a.47.47,0,0,1,.39-.83c6.43,1.8,23.2,5.67,38.61,2.47,12-2.49,23.16-9.29,28-24.72,0,0,9.57-28.32,9.19-51.67l-14.84-41.83,11-18.59s11.61-14.29,19.58-10.63c0,0,2.66-3,11.95-2.33l27.9-.66s35.53-6,46.48,42.83C638.55,290,652.84,323.21,638.55,324.85Z" fill="#0071f2"/><path d="M604.73,341.12c-1.6-26.88,13.32-86.14,13.32-86.14s-4.6-6.12-17.23-7.66l-9.25,37a15.35,15.35,0,0,1-12.27,11.45c-10.23,1.74-24.68,1.54-25.18-13.24l-1.9-32.39s-8.81-3.21-16.09,7.89c0,0,4.6,39,.39,63.16" fill="#0071f2"/><path d="M604.73,341.12c-1.6-26.88,13.32-86.14,13.32-86.14s-4.6-6.12-17.23-7.66l-9.25,37a15.35,15.35,0,0,1-12.27,11.45c-10.23,1.74-24.68,1.54-25.18-13.24l-1.9-32.39s-8.81-3.21-16.09,7.89c0,0,4.6,39,.39,63.16" fill="#fff" opacity="0.3"/><path d="M562.85,238.53l1.33,9.29s-5.32-.33-3.32,5c0,0,2,10.3,10.95,9.63,0,0,18.26-1.31,20.26-15.27,0,0-4.32-6.63-5.64-18.59l.42-13.69Z" fill="#f9b499"/><path d="M562.85,238.53l1.33,9.29s16.27-5.31,12.28-22.91Z" fill="#f7a48b"/><path d="M586.85,214.88c-2.86,13.92-11.16,24.61-22.76,27.17-13,2.86-27.51-5.38-36.45-19.6A54.42,54.42,0,0,1,522.16,211c2.32-9.23-2.14-21.32-2.14-21.32-.27-.62-.53-1.25-.75-1.88,1.59-17.4,11.69-31.47,25.26-34.47,10.91-2.41,22.19,2.93,30.52,13.08a57.52,57.52,0,0,1,11.44,24.16c.15.62.27,1.25.39,1.89s.18,1,.26,1.48c.26,1.58.45,3.15.59,4.7v0A55.89,55.89,0,0,1,586.85,214.88Z" fill="#f9b499"/><path d="M626.94,263.09C616.52,249.24,603,247.82,603,247.82l-11-.66c-3.33-5-5.64-18.59-5.64-18.59,0-3.59.18-8.7.42-13.69.33-7.37.77-14.51.88-16.17v0c0-.21,0-.34,0-.34-.16-1.51-.37-3-.61-4.36-.08-.5-.16-1-.26-1.48s-.24-1.27-.39-1.89c-2.88-13.33-8.37-20.49-8.37-20.49a16.63,16.63,0,0,0-3.07-3.67c-9-7.88-20.17,4.34-20.17,4.34-14.94,12-21.92,5.64-21.92,5.64-6-3.65-9.3-1.66-9.3-1.66s-2.49,2.5-1.06,7.66A97.72,97.72,0,0,1,525.94,199c.68,7,1.43,16,1.7,23.5.11,3.29.13,6.31,0,8.77,0,0-1.32,13.95,5.64,22.58,0,0,3,1.66-.65,7l-11,18.59s-1-4.65,6-16.28c0,0,6.31-8-3-19.58-10-12.48-2.65-31.88-2.65-31.88a5.66,5.66,0,0,0,.15-.59c2.32-9.23-2.14-21.32-2.14-21.32-.27-.62-.53-1.25-.75-1.88a37.64,37.64,0,0,1-1.32-4.62,40.94,40.94,0,0,1,6.57-32c13.29-19,33.67-12.5,42.1-8.66a17,17,0,0,0,8,1.57c35.28-2.15,36.43,34.6,35.55,48.94A17.22,17.22,0,0,0,613,203.47c12.2,18.85,8.55,29.06,6.39,32.61a12.24,12.24,0,0,0-1.88,6.75,8.52,8.52,0,0,0,1.13,4.33C625.61,256.13,626.94,263.09,626.94,263.09Z" fill="#2f2e41"/><path d="M520.68,179.75s5.59-7.78,12.28-3.32c1,.67,8.3,5,21.92-5.64,0,0,9.46-12.34,20.17-4.34a55.51,55.51,0,0,1,12.68,32.23S599,194,601.37,205c0,0,2.5,11.34-8.22,12.81a11.87,11.87,0,0,1-6.3-2.92l-.42,13.69s1.65,14,5.64,18.59c0,0,10,.66,15.61,1.33,0,0,10.87-16.16-1.34-38a8.71,8.71,0,0,1-1.1-4.84c.77-11.63,1.57-57.9-34.75-53.83C570.49,151.86,531.3,134.26,520.68,179.75Z" fill="#2f2e41"/><path d="M520.68,179.75s5.59-7.78,12.28-3.32c1,.67,8.3,5,21.92-5.64,0,0,9.46-12.34,20.17-4.34a55.51,55.51,0,0,1,12.68,32.23S599,194,601.37,205c0,0,2.5,11.34-8.22,12.81a11.87,11.87,0,0,1-6.3-2.92l-.42,13.69s1.65,14,5.64,18.59c0,0,10,.66,15.61,1.33,0,0,10.87-16.16-1.34-38a8.71,8.71,0,0,1-1.1-4.84c.77-11.63,1.57-57.9-34.75-53.83C570.49,151.86,531.3,134.26,520.68,179.75Z" opacity="0.3"/><path d="M637,411.54s-44.36,4-82.54,17.22c0,0-32.83,9.19-61.54-9.95,0,0-21.94-15.39-32.5-22.86a.47.47,0,0,1,.39-.83c6.43,1.8,23.2,5.67,38.61,2.47,7.34,3,17.3,7.22,25.44,11.42a48.22,48.22,0,0,0,25.35,5.34c16.27-1.09,40.26-6.37,50.67-26.93,0,0,4.2-7.28,1.53-24.12l4.31.62c1.49,15.1,4.63,31.7,11.31,36Z" opacity="0.3"/><path d="M514.41,319.58a29.64,29.64,0,0,1-3.82,9.38s3.92,20.07,3.92,31.19c0,0,16.58-6.88,21.79-35.71l-5.91-6.95Z" fill="#f7a48b"/><path d="M484.19,315.41s-1.74,50.72,24.67,46.9c0,0,10.42,1,7.64-14.94l-8.34-30.92Z" fill="#f9b499"/><path d="M485.23,291.09s-2.39-15.53,1.75-21.82a2.85,2.85,0,0,1,4.91.39c1.09,2.24,2.75,5.8,4.81,10.67l-.35,12.5Z" fill="#f9b499"/><polygon points="460.92 289.36 477.94 324.79 538.38 321.32 546.02 281.37 460.92 289.36" fill="#0071f2"/><polygon points="504.34 250.1 484.19 287.27 526.62 283.35 504.34 250.1" fill="#0071f2"/><polygon points="504.34 250.1 484.19 287.27 526.62 283.35 504.34 250.1" fill="#fff" opacity="0.5"/><polygon points="504.34 250.1 506.32 285.15 484.19 287.27 504.34 250.1" fill="#0071f2"/><path d="M520.47,322.34s-14.39-9.36.2-16c0,0,6.25-.35,3.82-7.3,0,0-2.09-11.11,19.45-6.25l-5.56,28.49Z" fill="#fff" opacity="0.5"/><polygon points="692.18 464.84 692.49 477.15 709.72 476.84 708.49 451.61 692.18 464.84" fill="#f7a48b"/><path d="M637.72,537.76s10.77,38.47,46.77,38.77c0,0,44.61,9.23,51.38-12l-66.46-35.38Z" fill="#2f2e41"/><path d="M656.18,532.23a44.73,44.73,0,0,0,16.31,22.15l2.15-18.46-5.23-6.77Z" opacity="0.3"/><polygon points="606.03 523.61 589.72 503 624.79 501.46 643.26 491.92 660.79 509.76 659.26 525.15 619.87 533.15 606.03 523.61" fill="#0071f2"/><polygon points="606.03 523.61 589.72 503 624.79 501.46 643.26 491.92 660.79 509.76 659.26 525.15 619.87 533.15 606.03 523.61" fill="#fff" opacity="0.3"/><polygon points="624.79 501.46 653.72 521.76 619.87 533.15 606.03 523.61 589.72 503 624.79 501.46" fill="#fff" opacity="0.3"/><path d="M258.32,437.49,260.84,462c.84,19.11-4.21,23.05-4.21,23.05-9.28,7.6-21.45-10.88-21.45-10.88l10.56-24.81.48-1.14-.17-2.17L244.79,430l8.25.27a.15.15,0,0,0,.1-.27c-2.63-2.34.28-4.46,1.64-5.66a1.29,1.29,0,0,0,.35-1.45c-1.47-3.91,2.07-2.2,5-.34a6.75,6.75,0,0,1,3,7.39A17.16,17.16,0,0,1,258.32,437.49Z" fill="#f9b499"/><path d="M244.81,430l.44,5.68s12.06-.91,8.06-5.36Z" fill="#f7a48b"/><path d="M249.6,370.57,296,374.51s-3.09,32.61-2.25,57.08l-59-2s-6.73-9.33-14.65-10.52l.81-8.86Z" fill="#0071f2"/><path d="M180.74,513.41s-12,13.88-9.82,20.7a2.22,2.22,0,0,0,3,1.28,68.22,68.22,0,0,0,18.8-12.14Z" fill="#f9b499"/><path d="M197.2,527.52s-10.9,13.05-4.49,17.32c0,0,3.81,2.48,13.93-7.29a8.82,8.82,0,0,1,5.21-2.45c3.3-.34,8.33-.27,11.66,2.51h0c0-.22-1.07-14.86-19.07-10.46C204.45,527.15,200,528.16,197.2,527.52Z" fill="#f9b499"/><path d="M253.1,469l-4.69-5c3-3.35,1.69-6,1.69-6l-4.39-8.46,0-.24.48-1.14-.17-2.17v-.1C254.45,453.62,253.1,469,253.1,469Z" fill="#f7a48b"/><path d="M328.61,341.5s2.08,2.5,5.12,13.7a35.48,35.48,0,0,1,1,6.06c.27,2.93,1.79,7.8,8.94,7.8,0,0,12.24-.76,10.71-8.42l-3.57-11-19.39-10.46Z" fill="#f9b499"/><path d="M350.81,349.67l3.57,11s-12,2.3-14.8-10.72Z" fill="#f7a48b"/><path d="M333,381.31s7.65,12.76,7.91,25.26l2.81-1S343.67,393.56,333,381.31Z" opacity="0.3"/><path d="M424.05,364.6S401,368,391.16,376.93l-6.41,43.68,22.85-6.22Z" opacity="0.1"/><path d="M376.4,438.78s14.72-19.56,31.94-22.07C408.34,416.71,385.6,415.71,376.4,438.78Z" opacity="0.3"/><path d="M321.57,435.44s34.44.67,52.16,9.53c0,0-13.54-8.36-22.24-8.7S340.63,433.43,321.57,435.44Z" opacity="0.3"/><path d="M380.41,458.38s28.61-1,28.39-12.65c0,0-.27-7.47-10.23-9.05a20.15,20.15,0,0,0-11.23,1.52,36.78,36.78,0,0,0-7.51,5.11S384.36,449.62,380.41,458.38Z" fill="#f9b499"/><path d="M384.82,418.38l-.08,2.22-11.22,9.19c-10.85,9.93-24.34,6.62-31,4a7.24,7.24,0,0,1-4.6-6.94v-.06l9.34-3.75s-4.32,13.83,8.66,9.68A48.07,48.07,0,0,0,377,419.2Z" opacity="0.3"/><polygon points="455.37 563.12 513.36 595.27 544.94 544.74 496.71 522.92 455.37 563.12" fill="#0071f2"/><polygon points="461.91 566.75 459.33 570.27 516.39 600.8 528.36 580.84 526.25 574.5 513.36 595.27 461.91 566.75" opacity="0.3"/><path d="M597.16,587.65s-25.23-.92-58.92,15.17c-.55.25-1.1.52-1.66.79L526.25,574.5l11.5-18.09,41.09-19.48S588.7,575.9,597.16,587.65Z" fill="#2f2e41"/><path d="M600,593.52c-22.54-.71-60.58,17.38-60.58,17.38l-1.18-8,0-.09c33.69-16.09,58.92-15.17,58.92-15.17Z" opacity="0.3"/><polygon points="542.57 548.48 548.79 551.25 537.75 556.41 542.57 548.48" opacity="0.3"/><path d="M423,560.75l-1.48,3.51L403,607.74c-13.49-20.5-41.45-22.58-55.11-22.27A78.83,78.83,0,0,0,340,586l33.67-44.49a1.75,1.75,0,0,1,1.5-.67C401.75,543.17,423,560.75,423,560.75Z" fill="#2f2e41"/><path d="M426.25,566,405,613.48c-15.5-23.48-61.48-21.74-61.48-21.74l4.37-6.27c13.66-.31,41.62,1.77,55.11,22.27l18.51-43.48Z" opacity="0.3"/><path d="M398.5,511c-23.32-1.18-44.41,10.52-46.77,11.87l-.21.12-9.91-36.2a.6.6,0,0,1,.08-.53c6.21-8.42,51.56-4.25,51.56-4.25a34.54,34.54,0,0,0-.27,5.31C393.24,499,398.5,511,398.5,511Z" fill="#e6e7e8"/><path d="M402,515.52c-20.5,0-48.23,14.24-48.23,14.24l-2-6.87c2.36-1.35,23.45-13.05,46.77-11.87,0,0-5.26-12-5.52-23.68l3.77-.06C396.75,501.27,402,515.52,402,515.52Z" opacity="0.3"/><ellipse cx="436.62" cy="539.39" rx="37.86" ry="6.37" opacity="0.3"/><ellipse cx="593.15" cy="207.53" rx="8.69" ry="10.27" fill="#f9b499"/><path d="M633.59,368.6c-2.76,4.8-6.77,8.23-12.53,9a16.16,16.16,0,0,1-5.54-.11c-5.95-.83-17.12-4-35.45-14.48l-32.3-22.92s-9-3.82-11.12-12.85c0,0-3.12-4.52-6.59-4.86,0,0-5.56-2.09-2.44-8.35,0,0-3.47-4.86,0-9,0,0-4.17-9,7.3-9.38,0,0,19.8-3.82,18.76,11.12,0,0-.35,11.12,5.9,14.24l28.69,12.81,16.46,7.34-.14-4.18s11.52-10.29,34-12.08C638.56,324.85,642.3,353.48,633.59,368.6Z" fill="#f9b499"/><path d="M633.58,368.61c-2.76,4.8-6.76,8.23-12.52,9a16.59,16.59,0,0,1-5.55-.11c.28-5.53,5.78-10,12.5-10A14.23,14.23,0,0,1,633.58,368.61Z" fill="#f7a48b"/><path d="M604.59,336.93l.14,4.19s10.08,4.16,11.81,10.42c0,0,14.94-28.83,22.23-18.76l-.22-7.93S620.1,324.87,604.59,336.93Z" fill="#f7a48b"/><path d="M527.61,314a3.73,3.73,0,0,1,1.57-.69,5.57,5.57,0,0,1,1.68-.08,4.47,4.47,0,0,1,3,1.47,21,21,0,0,1-3.15-.14A19.16,19.16,0,0,1,527.61,314Z" fill="#f7a48b"/><path d="M526.92,308.12a5.36,5.36,0,0,1,2.29-.4,10.66,10.66,0,0,1,2.26.27,10.49,10.49,0,0,1,4.13,1.86,11.3,11.3,0,0,1-2.27-.16c-.73-.09-1.44-.25-2.15-.4s-1.41-.34-2.11-.54Z" fill="#f7a48b"/><path d="M527.61,305a4.27,4.27,0,0,1,1.73-1.33,5.06,5.06,0,0,1,2.18-.47,4.36,4.36,0,0,1,2.2.58,3.82,3.82,0,0,1,1.54,1.57,18,18,0,0,0-1.93-.6,7.07,7.07,0,0,0-1.82-.21A20.28,20.28,0,0,0,527.61,305Z" fill="#f7a48b"/><path d="M589.45,334.87,561.66,324.1c-13.89-4.52-8-17.38-8-17.38s-.35,11.12,5.9,14.24l28.69,12.81Z" fill="#f7a48b"/><path d="M570.26,440.54s39.49,16.12,35.22,32c0,0,0,7.95-11.36,2,0,0-12.22-4-19.61-5.4,0,0-13.92-1.14-9.37-18.47Z" fill="#f9b499"/><path d="M460.37,396s-34.56-7.85-38,19.86c0,0-8.91,25.72,25.72,36.11,0,0,15.83,8.41,85.09,14.34l42.54,3s-21.27-1.48-5.44-28.69L546,427.68S514.23,410.23,460.37,396Z" fill="#2f2e41"/><ellipse cx="689.18" cy="430.31" rx="27.26" ry="39.61" fill="#f9b499"/><path d="M747.42,435.41s5.89,37.26-25.6,40.56c-1,.11-2,.18-3,.22,0,0-21.57-1.57-13.73-20.39a72.15,72.15,0,0,0-.78-14.12s-2.75-9,3.14-12.54c0,0-10.6-9-9.42-27.47,0,0-20.78,8.24-20.39-7,0,0-6.9-7.21,2.4-13a25.89,25.89,0,0,1,5-2.34s28.63-25.89,47.45,11.76C732.51,391.09,767.81,402.46,747.42,435.41Z" fill="#2f2e41"/><path d="M732.12,442.08s7.48,22.69-10.3,33.89c-1,.11-2,.18-3,.22,0,0-21.57-1.57-13.73-20.39a72.15,72.15,0,0,0-.78-14.12s-2.75-9,3.14-12.54c0,0-10.6-9-9.42-27.47,0,0-20.78,8.24-20.39-7,0,0-6.9-7.21,2.4-13,3.75,0,30.29.38,37.21,20.41C717.22,402.08,749.76,411.09,732.12,442.08Z" opacity="0.3"/><path d="M619.87,527.61s29.54-8.31,33.85-13.23l15.69,14.77s-3.08,9.85-28.62,10.77l-21.53.61s-10.77,3.08-12.93-1.84c0,0-3.07-.62-1.84-4.93,0,0-2.77-.3-1.54-4,0,0-4.62-4.92,4.61-6.15C607.56,523.61,611.26,521.77,619.87,527.61Z" fill="#f9b499"/><path d="M609.1,527c-1.28.34-2.39.52-3.41.89a6.9,6.9,0,0,0-1.42.69,10.42,10.42,0,0,0-1.32,1.18,2.79,2.79,0,0,1,.59-1.92,3.74,3.74,0,0,1,1.7-1.21,4.92,4.92,0,0,1,2-.24A3.91,3.91,0,0,1,609.1,527Z" fill="#f7a48b"/><path d="M608.8,531.3a6.89,6.89,0,0,0-2.37.8,6,6,0,0,0-.9.7c-.31.28-.62.61-1,1a2.58,2.58,0,0,1,.17-1.55,2.77,2.77,0,0,1,1.08-1.25A2.44,2.44,0,0,1,608.8,531.3Z" fill="#f7a48b"/><path d="M606.33,538.69a2.3,2.3,0,0,1,.62-1.22,3.26,3.26,0,0,1,1.08-.76,2.78,2.78,0,0,1,2.61.13,8.24,8.24,0,0,1-1.09.64c-.34.17-.67.31-1,.46A14.11,14.11,0,0,1,606.33,538.69Z" fill="#f7a48b"/><path d="M741.71,549.15s1.24,12.93-8.92,17.54c0,0-40.3,7.07-55.69-7.08,0,0-8.62-5.54-7.38-19.07l-.31-11.39s-12.68.67-15.53-8.58a11.42,11.42,0,0,1,1-8.69c4.95-9.39,21.83-39,37.64-38.73,0,0,26.77-6.15,40,18.15,0,0,.36.6.94,1.76h0C736.5,499.19,745.85,520.69,741.71,549.15Z" fill="#0071f2"/><path d="M741.71,549.15s-51.07,29.23-71.69-6.77l-.61-13.23s23.35-15.57,25.12-36.95a15.43,15.43,0,0,1,3.47-8.67c4.52-5.4,14.56-9.46,35.42,9.53h0C736.5,499.19,745.85,520.69,741.71,549.15Z" fill="#fff" opacity="0.3"/><path d="M255.22,537.19a171.17,171.17,0,0,1-31.7.43c-1.12-6.54-4.74-9.41-8.53-10.55a20.74,20.74,0,0,0-10.54.08c-29.75,5.33-23.6-26-23.6-26,1.24-12.52,7.4-61.35,7.4-61.35-.66-2.53,4.11-7.47,7.54-10.62a21.06,21.06,0,0,1,6.87-4.24l14.53-5.46a8.3,8.3,0,0,1,6.52.19c10.49,4.91,19.63,22.82,24.13,33,1,2.24,1.74,4.1,2.25,5.37a4.21,4.21,0,0,1-.3,3.69,29.09,29.09,0,0,1-14.61,12.43,2,2,0,0,0-1.26,2.36c3.25,14.13,18.73,18.66,18.73,18.66,28.11,9.43,28.72,21.13,28.72,21.13C285.16,530,270.65,535.27,255.22,537.19Z" fill="#0071f2"/><path d="M255.22,537.19a171.17,171.17,0,0,1-31.7.43c-1.12-6.54-4.74-9.41-8.53-10.55a20.74,20.74,0,0,0-10.54.08c-29.75,5.33-23.6-26-23.6-26,1.24-12.52,7.4-61.35,7.4-61.35-.66-2.53,4.11-7.47,7.54-10.62a21.06,21.06,0,0,1,6.87-4.24l14.53-5.46a8.3,8.3,0,0,1,6.52.19c10.49,4.91,19.63,22.82,24.13,33,1,2.24,1.74,4.1,2.25,5.37a4.21,4.21,0,0,1-.3,3.69,29.09,29.09,0,0,1-14.61,12.43,2,2,0,0,0-1.26,2.36c3.25,14.13,18.73,18.66,18.73,18.66,28.11,9.43,28.72,21.13,28.72,21.13C285.16,530,270.65,535.27,255.22,537.19Z" opacity="0.3"/><path d="M252.65,495.16s-18.25.4-23.59-9.45c-.14-.25-.27-.52-.41-.81-5-10.49-5.54-37.13-5.54-37.13l8.21,16c2.87,5.75,16.41-11.08,16.41-11.08l.11,0c1,2.24,1.74,4.1,2.25,5.37a4.21,4.21,0,0,1-.3,3.69,29.09,29.09,0,0,1-14.61,12.43,2,2,0,0,0-1.26,2.36C237.17,490.63,252.65,495.16,252.65,495.16Z" opacity="0.3"/><ellipse cx="224.01" cy="371.86" rx="25.31" ry="41.79" fill="#f9b499"/><path d="M213.16,393.15l3.22-15.26c15.27-12.46,12.05-33.35,12.05-33.35s9.65,6,13.66-1.21c0,0,4,5.22,5.63,15.27,0,0,8.84-24.11-15.67-35,0,0-27.5-15.35-42.77,4.1a9.1,9.1,0,0,1-7.43,3.44c-10.32-.29-33.22,3.79-26.95,47.11,0,0,1.09,26.42,16.31,45.25a9.72,9.72,0,0,1,2.2,6.68c-.41,6.95.45,20.26,14.84,9.54,0,0,7.24,17.68,18.89-.4C207.14,439.36,222,430.92,213.16,393.15Z" fill="#2f2e41"/><path d="M173.58,438.83s14.76-6.71,2-28.19c0,0-35.23-63.08,16.44-71.47,0,0,24.16-31.2,57.38,6a44.74,44.74,0,0,1-1.69,13.39s-2.88-11.11-5.63-15.27c0,0-3.77,6.9-13.66,1.21,0,0,2.9,20.72-12.05,33.35l-3.22,15.26s10.09,34.33-6,46.21c0,0-10.6,18.11-18.89.4C188.25,439.76,178.28,449.23,173.58,438.83Z" opacity="0.3"/><ellipse cx="213.16" cy="384.72" rx="6.43" ry="8.44" fill="#f9b499"/><path d="M255.22,537.19a171.17,171.17,0,0,1-31.7.43c-1.12-6.54-4.74-9.41-8.53-10.55,1-.65,18.64-12.07,33.28-9.79a6.3,6.3,0,0,1,3.73,2,14.89,14.89,0,0,1,3.58,8A21.54,21.54,0,0,1,255.22,537.19Z" opacity="0.3"/><ellipse cx="354.13" cy="316.24" rx="29.86" ry="39.3" fill="#f9b499"/><path d="M381.44,300.67h0l-.34-1a24.78,24.78,0,0,0-2.81-6.18l-.16-.23c-4.85,6.38-12.26-.25-12.26-.25-10.19-7.4-16.59,7.66-16.59,7.66-1.52,6.89-10.46,6.12-10.46,6.12-13.26-5.87-12.62,23-12.62,23-7,.25-6,9-6,9-18.88-6.64-19.36-25.31-19.36-25.31-.51-30.62,24-28.32,24-28.32,4.09-8.93,10.47-12,10.47-12,8-3.74,14.73-4.82,20.36-4.43a29,29,0,0,1,21.75,12.08C397.12,283,382,300,381.44,300.67Z" fill="#2f2e41"/><ellipse cx="326.19" cy="337.42" rx="6.76" ry="7.66" fill="#f9b499"/><path d="M381.44,300.67h0l-.34-1a31.21,31.21,0,0,0-2.81-6.18l-.16-.23c-4.77-15-20.67-23.63-22.51-24.58a29,29,0,0,1,21.75,12.08C397.12,283,382,300,381.44,300.67Z" opacity="0.3"/><polygon points="391.16 376.93 355.99 374.42 350.96 422.84 384.75 420.61 391.16 376.93" fill="#d1d3d4"/><path d="M424.05,364.6S401,368,391.16,376.93l-6.41,43.68,22.85-6.22Z" fill="#d1d3d4"/><path d="M318.4,421.37s.36,18.37,17.94,9.69l20-12.64a5.65,5.65,0,0,1,3.58-.86C365,418,378.48,418.77,377,413c0,0,3.42-2.29.91-5.26,0,0,4.34-1.14,1.37-6.39,0,0-3-6.17-13.24-5a5,5,0,0,0,.89-1.07,2.14,2.14,0,0,0-2.75-3c-2.12,1-5.52,3.31-8.54,8.77a7.76,7.76,0,0,1-6,3.92C340.73,405.91,320.6,409.44,318.4,421.37Z" fill="#f9b499"/><path d="M377.91,407.76a5.1,5.1,0,0,1-2.71.21,5.22,5.22,0,0,1-2.49-1.12,5.56,5.56,0,0,1,5.2.91Z" fill="#f7a48b"/><path d="M376.18,413a11.77,11.77,0,0,1-7.8-.23,10.3,10.3,0,0,1,3.92-.56A10.51,10.51,0,0,1,376.18,413Z" fill="#f7a48b"/><path d="M393.25,514.52l21.5,24.24s36.49,6.5,54.73-5.75l10.33-31.24a.09.09,0,0,0-.16-.09,30.44,30.44,0,0,1-12.42,8.59l-32.49-39.49L413.5,505.52Z" fill="#0071f2"/><path d="M460.23,502l19.58-.25s-3.58,4.75-12.58,8.5Z" fill="#0071f2"/><path d="M460.23,502l19.58-.25s-3.58,4.75-12.58,8.5Z" opacity="0.3"/><path d="M438,515.27l-3.25-44.49L413.5,505.52l-20.25,9S426.24,518.77,438,515.27Z" opacity="0.3"/></svg>